<svg width="255" height="240" viewBox="0 0 255 240" fill="none" xmlns="http://www.w3.org/2000/svg">
<g clip-path="url(#clip0_1803_19)">
<path d="M57.0699 152.602H7.20273L46.3838 172.045L57.0685 152.602H57.0699ZM197.695 152.599H247.638L208.381 172.042L197.695 152.599Z" fill="#7A3B00"/>
<path d="M127.832 238.658C126.205 238.658 124.654 238.279 123.456 237.595L114.537 232.48C113.509 231.888 111.755 231.493 110.184 231.493C109.629 231.493 109.111 231.544 108.704 231.643L98.7038 234.038C98.1321 234.171 97.547 234.237 96.9601 234.236C94.4733 234.236 91.8645 233.189 90.3133 231.574L83.1946 224.153C82.0502 222.957 79.4929 221.789 77.8319 221.707L67.5634 221.191C64.7404 221.046 61.5092 218.971 60.2075 216.466L55.4658 207.344C54.6983 205.867 52.5777 204.026 51.0088 203.479L41.3058 200.085C38.6387 199.157 36.1221 196.251 35.581 193.479L33.6068 183.386C33.2922 181.759 31.7695 179.394 30.4217 178.423L22.0664 172.438C19.7709 170.795 18.1722 167.302 18.4339 164.49L19.3817 154.251C19.5376 152.595 18.7417 149.898 17.7193 148.591L11.3871 140.491C9.64203 138.266 9.09559 134.465 10.1424 131.84L13.9363 122.286C14.5464 120.74 14.5464 117.928 13.9363 116.388L10.1424 106.83C9.09695 104.209 9.64881 100.403 11.3858 98.179L17.7193 90.0773C18.7417 88.7702 19.5322 86.0746 19.3817 84.4176L18.4339 74.1804C18.1722 71.3668 19.7709 67.8753 22.0664 66.2251L30.4271 60.2332C31.7763 59.2637 33.2976 56.8976 33.6122 55.2705L35.5878 45.1783C36.1343 42.4 38.6441 39.501 41.3099 38.5709L51.021 35.1783C52.5899 34.6319 54.7105 32.7905 55.478 31.3139L60.2197 22.1912C61.5214 19.6814 64.7512 17.6068 67.5756 17.4671L77.8428 16.9505C79.4984 16.8692 82.0556 15.7003 83.2068 14.4976L90.3255 7.07797C91.8753 5.4617 94.4855 4.4217 96.9723 4.4217C97.5824 4.4217 98.1696 4.48542 98.7146 4.61966L108.715 7.01288C109.201 7.11983 109.698 7.17078 110.197 7.16475C111.765 7.16475 113.521 6.76339 114.549 6.17627L123.469 1.06441C124.666 0.376949 126.217 0 127.844 0C129.466 0 131.017 0.378305 132.214 1.06305L141.134 6.18305C142.161 6.7756 143.916 7.17017 145.485 7.17017C145.983 7.17737 146.48 7.12687 146.967 7.01966L156.967 4.62509C157.539 4.49262 158.124 4.42619 158.711 4.42712C161.197 4.42712 163.806 5.46848 165.352 7.08339L172.471 14.5031C173.62 15.7003 176.178 16.8692 177.833 16.9559L188.102 17.4725C190.925 17.6176 194.151 19.6922 195.458 22.1966L200.193 31.3193C200.96 32.7905 203.081 34.6319 204.65 35.1837L214.354 38.5776C217.021 39.5132 219.538 42.4122 220.083 45.1837L222.058 55.2773C222.378 56.9044 223.896 59.2692 225.249 60.24L233.606 66.2305C235.907 67.8753 237.504 71.3736 237.237 74.1858L236.296 84.4176C236.139 86.0678 236.929 88.7702 237.951 90.0773L244.285 98.1777C246.029 100.403 246.575 104.209 245.528 106.83L241.734 116.389C241.119 117.928 241.119 120.742 241.734 122.287L245.528 131.845C246.575 134.472 246.029 138.271 244.285 140.498L237.957 148.597C236.934 149.905 236.144 152.601 236.296 154.256L237.242 164.495C237.504 167.307 235.907 170.8 233.611 172.45L225.254 178.435C223.907 179.406 222.384 181.771 222.071 183.398L220.095 193.49C219.554 196.263 217.039 199.162 214.372 200.098L204.662 203.492C203.098 204.037 200.972 205.879 200.205 207.355L195.469 216.477C194.168 218.982 190.937 221.056 188.113 221.201L177.846 221.719C176.19 221.801 173.633 222.975 172.481 224.165L165.364 231.585C163.818 233.201 161.21 234.247 158.723 234.247C158.113 234.247 157.526 234.178 156.979 234.049L146.979 231.656C146.493 231.549 145.995 231.498 145.497 231.504C143.923 231.504 142.174 231.9 141.139 232.492L132.203 237.588C131.01 238.279 129.454 238.658 127.832 238.658Z" fill="url(#paint0_linear_1803_19)"/>
<path d="M239.945 122.979C239.143 120.968 239.143 117.673 239.945 115.662L243.733 106.103C244.535 104.094 244.094 101.05 242.762 99.3465L236.429 91.2461C235.099 89.5377 234.168 86.3824 234.366 84.2265L235.313 73.9892C235.516 71.8332 234.239 69.0373 232.478 67.7763L224.122 61.7858C222.361 60.5248 220.583 57.7587 220.164 55.6326L218.189 45.539C217.777 43.4183 215.76 41.0943 213.721 40.3797L204.011 36.9858C201.966 36.2712 199.478 34.1153 198.479 32.1926L193.744 23.0698C192.75 21.1458 190.164 19.4848 188.003 19.3736L177.734 18.857C175.573 18.7458 172.575 17.3803 171.075 15.817L163.958 8.3973C162.458 6.83391 159.512 5.96882 157.409 6.47323L147.409 8.8678C145.306 9.37357 142.046 8.90306 140.168 7.8278L131.249 2.71458C129.372 1.63933 126.3 1.63933 124.422 2.71458L115.503 7.8278C113.626 8.90848 110.365 9.37357 108.262 8.8678L98.2618 6.47323C96.1588 5.96882 93.2069 6.83391 91.7072 8.3973L84.5886 15.817C83.0903 17.3803 80.0977 18.7458 77.9364 18.857L67.6679 19.3736C65.5065 19.4848 62.9221 21.1458 61.9282 23.0698L57.1865 32.1926C56.1926 34.1098 53.6991 36.2658 51.6597 36.9858L41.9567 40.3797C39.9106 41.0888 37.8997 43.4129 37.4821 45.539L35.5065 55.6326C35.0929 57.7587 33.3099 60.5248 31.5485 61.7858L23.1933 67.7763C21.4319 69.0373 20.1546 71.8332 20.358 73.9878L21.3044 84.2265C21.5024 86.3824 20.579 89.5377 19.2421 91.2461L12.9085 99.3465C11.5783 101.055 11.1417 104.094 11.9377 106.104L15.7261 115.664C16.5288 117.673 16.5288 120.968 15.7261 122.979L11.9377 132.538C11.1417 134.548 11.5783 137.592 12.9085 139.295L19.2421 147.395C20.5722 149.098 21.5024 152.259 21.3044 154.415L20.358 164.654C20.1546 166.808 21.4333 169.604 23.1933 170.865L31.5485 176.856C33.3099 178.117 35.0875 180.883 35.5065 183.009L37.4821 193.097C37.8943 195.223 39.9106 197.542 41.9567 198.256L51.6597 201.65C53.7058 202.365 56.1926 204.521 57.1919 206.443L61.9336 215.566C62.933 217.49 65.5187 219.151 67.6747 219.256L77.9418 219.774C80.1031 219.883 83.1025 221.249 84.5954 222.812L91.714 230.233C93.2123 231.795 96.1588 232.662 98.2672 232.156L108.269 229.761C110.37 229.257 113.631 229.728 115.509 230.801L124.427 235.916C126.304 236.997 129.378 236.997 131.254 235.916L140.175 230.801C142.052 229.721 145.311 229.257 147.414 229.761L157.414 232.156C159.519 232.662 162.471 231.795 163.964 230.233L171.082 222.812C172.581 221.249 175.573 219.883 177.741 219.774L188.008 219.256C190.17 219.146 192.755 217.483 193.749 215.566L198.486 206.443C199.485 204.526 201.972 202.365 204.017 201.65L213.726 198.256C215.772 197.542 217.782 195.218 218.196 193.097L220.171 183.009C220.589 180.883 222.368 178.117 224.128 176.856L232.483 170.865C234.244 169.604 235.523 166.808 235.32 164.654L234.372 154.415C234.168 152.259 235.099 149.104 236.434 147.395L242.769 139.295C244.105 137.586 244.541 134.548 243.739 132.537L239.945 122.978V122.979Z" fill="url(#paint1_linear_1803_19)"/>
<path d="M127.832 28.8569C77.8659 28.8569 37.3655 69.3587 37.3655 119.325C37.3655 169.291 77.8672 209.791 127.833 209.791C177.793 209.791 218.3 169.291 218.3 119.323C218.3 69.3573 177.793 28.8569 127.832 28.8569ZM127.832 174.799C97.1988 174.799 72.3581 149.963 72.3581 119.325C72.3581 88.6902 97.1933 63.8549 127.832 63.8549C158.467 63.8549 183.302 88.6902 183.302 119.325C183.307 149.958 158.472 174.799 127.832 174.799Z" fill="black"/>
<path d="M35.7099 150.614L35.1349 148.766L33.2 148.743L34.7729 147.622L34.1994 145.774L35.7505 146.93L37.3248 145.809L36.7092 147.645L38.2604 148.801L36.3255 148.777L35.7099 150.614ZM33.5892 143.49L33.1526 141.601L31.2231 141.433L32.8855 140.439L32.4556 138.556L33.9146 139.824L35.5756 138.83L34.8149 140.608L36.2739 141.881L34.3444 141.711L33.5892 143.49ZM32.0136 136.214L31.7288 134.302L29.817 133.984L31.5485 133.117L31.2638 131.205L32.6183 132.583L34.3499 131.717L33.4549 133.437L34.8149 134.82L32.9031 134.5L32.0136 136.214ZM31.0034 128.852L30.8638 126.923L28.9871 126.458L30.7824 125.733L30.6427 123.803L31.8861 125.279L33.6814 124.553L32.659 126.197L33.9024 127.679L32.0258 127.214L31.0034 128.853V128.852ZM30.5668 121.439L30.579 119.502L28.7431 118.892L30.5844 118.307L30.5966 116.372L31.7234 117.94L33.5648 117.353L32.4204 118.91L33.5485 120.485L31.7112 119.881L30.5668 121.439ZM30.6956 114.007L30.8516 112.083L29.0685 111.333L30.9505 110.885L31.1078 108.957L32.1126 110.608L33.996 110.16L32.7349 111.63L33.7397 113.285L31.9499 112.536L30.6956 114.007ZM31.3871 106.609L31.6882 104.697L29.9621 103.82L31.8739 103.517L32.1763 101.605L33.0536 103.332L34.9655 103.029L33.5946 104.396L34.4719 106.121L32.7458 105.243L31.3858 106.609H31.3871ZM32.6414 99.3004L33.0888 97.4156L31.4387 96.4122L33.3682 96.255L33.8156 94.3716L34.5655 96.156L36.4936 95.9987L35.0238 97.2597L35.7736 99.0495L34.118 98.0448L32.6414 99.299V99.3004ZM34.4488 92.0828L35.036 90.24L33.4671 89.1133L35.4021 89.1011L35.9878 87.2597L36.598 89.0956L38.5343 89.0848L36.9709 90.2292L37.5743 92.0651L36.0055 90.9316L34.4488 92.0828ZM36.796 85.04L37.5227 83.2502L36.0407 82.0068L37.9702 82.1397L38.6956 80.3499L39.1675 82.2278L41.0956 82.3675L39.4522 83.3899L39.916 85.2665L38.4353 84.0231L36.796 85.04ZM39.6719 78.1831L40.5329 76.4516L39.1499 75.0983L41.0617 75.3831L41.9214 73.6516L42.2414 75.5566L44.1587 75.8414L42.4434 76.7363L42.7634 78.6482L41.3804 77.2936L39.6719 78.1831ZM43.0604 71.577L44.0543 69.9146L42.7811 68.4556L44.6699 68.8855L45.6638 67.2244L45.8373 69.1539L47.7262 69.5838L45.9485 70.3444L46.1221 72.2739L44.8502 70.8149L43.0604 71.577ZM46.9533 65.2366L48.0692 63.657L46.9072 62.1044L48.754 62.6739L49.8699 61.0943L49.8997 63.0292L51.7465 63.6041L49.916 64.2265L49.9404 66.1655L48.7838 64.6156L46.9533 65.2366ZM51.3112 59.2231L52.5438 57.7356L51.5092 56.1031L53.3045 56.8176L54.537 55.3302L54.415 57.2583L56.2157 57.9729L54.339 58.4502L54.217 60.3851L53.1824 58.7526L51.3112 59.2231ZM56.1221 53.558L57.4713 52.1682L56.5641 50.4597L58.3011 51.3085L59.6435 49.92L59.3763 51.8319L61.1201 52.6861L59.2082 53.0224L58.9411 54.941L58.034 53.2326L56.1221 53.558ZM61.3641 48.2698L62.8109 46.9858L62.038 45.2136L63.7058 46.1953L65.1526 44.9112L64.7404 46.8L66.4082 47.7817L64.4841 47.9675L64.0652 49.8563L63.2923 48.0841L61.3641 48.2698ZM66.9709 43.4237L68.5113 42.2563L67.8781 40.4312L69.4645 41.5349L71.0035 40.3675L70.4462 42.221L72.0326 43.3248L70.0977 43.3654L69.5391 45.219L68.9004 43.3885L66.9709 43.4237ZM72.9506 39.002L74.5777 37.9553L74.0842 36.0841L75.5825 37.3112L77.2096 36.2644L76.5126 38.0665L78.0109 39.2922L76.0828 39.181L75.3791 40.9885L74.8855 39.1173L72.9506 39.002ZM79.2313 35.0563L80.9343 34.1383L80.5804 32.2319L81.9865 33.5634L83.6828 32.6387L82.8516 34.3878L84.2523 35.718L82.335 35.4685L81.4984 37.2176L81.1499 35.3112L79.2313 35.0563ZM85.8157 31.5878L87.5811 30.7973L87.3723 28.8732L88.6686 30.3092L90.4354 29.5187L89.4767 31.1973L90.7784 32.6332L88.8828 32.2387L87.9201 33.9173L87.7099 31.9946L85.8157 31.5878ZM92.6306 28.6292L94.4503 27.9729L94.392 26.038L95.5771 27.5661L97.3967 26.9098L96.3093 28.5071L97.4944 30.0353L95.6367 29.4956L94.5425 31.0997L94.4788 29.1648L92.632 28.6292H92.6306ZM99.6395 26.2007L101.504 25.6895L101.597 23.7546L102.66 25.3695L104.526 24.8583L103.317 26.3756L104.381 27.9892L102.568 27.3044L101.359 28.8149L101.447 26.88L99.6395 26.2007ZM106.839 24.3173L108.738 23.9512L108.976 22.0285L109.912 23.7193L111.813 23.3532L110.494 24.7715L111.429 26.4624L109.675 25.6434L108.349 27.0536L108.587 25.1376L106.838 24.3173H106.839ZM114.16 22.9925L116.083 22.7715L116.467 20.8786L117.269 22.6386L119.192 22.4176L117.768 23.7248L118.576 25.4861L116.891 24.5329L115.462 25.84L115.846 23.9458L114.16 22.9925ZM121.546 22.2373L123.474 22.1681L124.003 20.3078L124.671 22.1275L126.606 22.057L125.084 23.2542L125.752 25.0739L124.143 23.9932L122.62 25.1892L123.149 23.3302L121.546 22.2373ZM128.976 22.0461L130.913 22.122L131.58 20.3078L132.109 22.1736L134.038 22.2495L132.429 23.3248L132.957 25.1892L131.435 23.9864L129.825 25.0617L130.494 23.2488L128.978 22.0461H128.976ZM136.387 22.4231L138.309 22.6441L139.117 20.8895L139.501 22.7837L141.424 23.0048L139.739 23.958L140.122 25.8522L138.693 24.5451L137.008 25.497L137.809 23.737L136.387 22.4231ZM143.753 23.3654L145.654 23.7315L146.59 22.0339L146.827 23.958L148.722 24.3241L146.974 25.1485L147.211 27.0671L145.886 25.6542L144.132 26.4732L145.067 24.777L143.753 23.3654ZM151.035 24.8637L152.901 25.3749L153.964 23.7546L154.056 25.6841L155.922 26.1953L154.109 26.88L154.202 28.8149L152.993 27.3044L151.18 27.9905L152.243 26.3742L151.035 24.8637ZM158.187 26.9153L160.007 27.5661L161.192 26.038L161.134 27.9729L162.952 28.6237L161.099 29.1702L161.042 31.1051L159.949 29.5064L158.09 30.0529L159.275 28.5193L158.187 26.9153ZM165.149 29.4956L166.915 30.2861L168.212 28.8448L168.008 30.7675L169.774 31.5526L167.886 31.9539L167.683 33.8766L166.712 32.2034L164.818 32.6034L166.114 31.1634L165.149 29.4956ZM171.896 32.6034L173.598 33.5214L174.998 32.1926L174.65 34.0909L176.353 35.0102L174.434 35.2651L174.086 37.1715L173.249 35.4278L171.332 35.6841L172.732 34.3471L171.896 32.6034ZM178.398 36.2183L180.025 37.2637L181.524 36.0434L181.029 37.9146L182.657 38.9614L180.727 39.0712L180.233 40.9424L179.531 39.1404L177.602 39.2515L179.101 38.0258L178.398 36.2183ZM184.591 40.3146L186.132 41.482L187.718 40.3783L187.085 42.2034L188.624 43.3709L186.689 43.3302L186.056 45.1607L185.499 43.3071L183.564 43.2665L185.15 42.1627L184.591 40.3146ZM190.455 44.8759L191.901 46.16L193.569 45.1783L192.796 46.9505L194.243 48.2346L192.32 48.0488L191.547 49.821L191.128 47.9268L189.206 47.7356L190.874 46.7593L190.455 44.8759ZM195.964 49.8793L197.306 51.2678L199.043 50.419L198.136 52.1275L199.478 53.5227L197.579 53.1851L196.666 54.8936L196.399 52.9763L194.487 52.64L196.225 51.7912L195.964 49.8793ZM201.054 55.2827L202.285 56.777L204.087 56.0624L203.047 57.6949L204.278 59.1824L202.407 58.7051L201.372 60.339L201.25 58.4095L199.374 57.9268L201.176 57.2177L201.054 55.2827ZM205.725 61.0712L206.841 62.6509L208.689 62.076L207.533 63.6271L208.648 65.2082L206.818 64.5858L205.656 66.1383L205.679 64.2021L203.843 63.581L205.69 63.0061L205.725 61.0712ZM209.915 67.1838L210.914 68.8394L212.798 68.3987L211.53 69.8631L212.529 71.5173L210.746 70.7688L209.48 72.2332L209.642 70.3038L207.858 69.5539L209.74 69.1133L209.915 67.1838ZM213.668 73.6041L214.535 75.3356L216.446 75.0455L215.069 76.4055L215.935 78.137L214.22 77.2475L212.844 78.6075L213.157 76.6956L211.438 75.8061L213.349 75.516L213.668 73.6041ZM216.917 80.2861L217.649 82.076L219.579 81.9309L218.102 83.1811L218.834 84.9709L217.189 83.9539L215.714 85.2014L216.173 83.3194L214.529 82.297L216.457 82.1519L216.917 80.2861ZM219.642 87.196L220.235 89.0373L222.17 89.0427L220.601 90.1763L221.194 92.019L219.63 90.88L218.061 92.0122L218.666 90.1709L217.103 89.0265L219.038 89.0319L219.642 87.196ZM221.832 94.2902L222.28 96.1736L224.209 96.3295L222.559 97.3411L223.006 99.2231L221.537 97.9689L219.886 98.9804L220.629 97.1906L219.16 95.9295L221.089 96.08L221.832 94.2902ZM223.472 101.542L223.774 103.454L225.686 103.756L223.96 104.633L224.262 106.545L222.897 105.18L221.171 106.057L222.048 104.331L220.677 102.965L222.587 103.268L223.472 101.542ZM224.547 108.899L224.703 110.822L226.586 111.269L224.802 112.014L224.959 113.942L223.698 112.477L221.914 113.222L222.92 111.572L221.659 110.102L223.541 110.549L224.547 108.899ZM225.051 116.308L225.058 118.243L226.899 118.835L225.063 119.439L225.069 121.374L223.924 119.817L222.088 120.422L223.222 118.846L222.076 117.283L223.919 117.877L225.051 116.308ZM224.994 123.745L224.855 125.675L226.65 126.407L224.773 126.865L224.634 128.795L223.611 127.15L221.733 127.615L222.983 126.133L221.961 124.488L223.749 125.22L224.994 123.745ZM224.366 131.149L224.082 133.06L225.813 133.925L223.901 134.245L223.617 136.156L222.722 134.442L220.815 134.762L222.175 133.379L221.28 131.66L223.012 132.525L224.366 131.149ZM223.175 138.475L222.745 140.363L224.407 141.357L222.478 141.525L222.048 143.414L221.286 141.637L219.358 141.81L220.815 140.538L220.055 138.759L221.717 139.753L223.175 138.475ZM221.432 145.703L220.863 147.551L222.442 148.667L220.507 148.69L219.933 150.538L219.31 148.708L217.375 148.731L218.928 147.574L218.305 145.738L219.886 146.854L221.432 145.703ZM219.147 152.763L218.44 154.566L219.933 155.797L218.003 155.675L217.294 157.477L216.813 155.606L214.883 155.483L216.516 154.449L216.033 152.572L217.527 153.803L219.147 152.763ZM216.335 159.643L215.488 161.38L216.882 162.723L214.964 162.456L214.122 164.194L213.779 162.288L211.862 162.02L213.569 161.113L213.233 159.208L214.627 160.551L216.335 159.643ZM213.001 166.297L212.025 167.97L213.314 169.417L211.42 169.005L210.444 170.673L210.253 168.749L208.357 168.336L210.13 167.558L209.938 165.629L211.222 167.075L213.001 166.297ZM209.165 172.666L208.061 174.258L209.236 175.797L207.382 175.239L206.284 176.831L206.236 174.896L204.383 174.339L206.213 173.699L206.173 171.764L207.347 173.304L209.165 172.666ZM204.865 178.72L203.645 180.22L204.697 181.84L202.89 181.143L201.669 182.643L201.774 180.713L199.966 180.016L201.838 179.516L201.942 177.581L202.994 179.203L204.865 178.72ZM200.101 184.433L198.77 185.839L199.694 187.535L197.945 186.698L196.615 188.105L196.864 186.187L195.12 185.356L197.027 185.002L197.283 183.083L198.206 184.787L200.101 184.433ZM194.924 189.749L193.488 191.044L194.278 192.811L192.605 191.847L191.169 193.142L191.57 191.254L189.897 190.289L191.82 190.086L192.221 188.191L193.012 189.958L194.924 189.749ZM189.339 194.665L187.81 195.844L188.461 197.662L186.864 196.571L185.336 197.751L185.876 195.897L184.278 194.804L186.213 194.746L186.76 192.887L187.41 194.711L189.339 194.665ZM183.406 199.134L181.791 200.197L182.303 202.061L180.792 200.853L179.176 201.916L179.857 200.103L178.345 198.895L180.28 198.987L180.96 197.174L181.471 199.04L183.406 199.134ZM177.149 203.136L175.458 204.077L175.824 205.978L174.406 204.659L172.715 205.6L173.528 203.846L172.116 202.526L174.034 202.765L174.853 201.01L175.219 202.91L177.149 203.136ZM170.623 206.658L168.868 207.466L169.094 209.389L167.782 207.965L166.021 208.773L166.968 207.088L165.654 205.664L167.554 206.042L168.502 204.357L168.728 206.281L170.623 206.658ZM163.824 209.68L162.011 210.347L162.087 212.282L160.89 210.766L159.077 211.44L160.147 209.831L158.949 208.308L160.814 208.831L161.889 207.222L161.965 209.157L163.824 209.68ZM156.829 212.172L154.963 212.701L154.894 214.636L153.812 213.027L151.953 213.555L153.145 212.033L152.064 210.423L153.882 211.092L155.073 209.569L155.004 211.504L156.829 212.172ZM149.652 214.119L147.758 214.502L147.536 216.426L146.583 214.74L144.684 215.124L145.991 213.695L145.039 212.01L146.799 212.811L148.106 211.387L147.885 213.311L149.652 214.119ZM142.36 215.508L140.442 215.747L140.076 217.646L139.257 215.892L137.333 216.129L138.745 214.811L137.926 213.055L139.623 213.991L141.035 212.673L140.669 214.572L142.36 215.508ZM134.974 216.332L133.039 216.42L132.528 218.285L131.848 216.472L129.913 216.559L131.424 215.351L130.738 213.538L132.36 214.601L133.87 213.393L133.359 215.258L134.974 216.332ZM127.543 216.589L125.607 216.53L124.956 218.349L124.41 216.49L122.475 216.431L124.073 215.34L123.527 213.479L125.061 214.665L126.659 213.573L126.008 215.391L127.542 216.589H127.543ZM120.128 216.281L118.205 216.077L117.414 217.844L117.013 215.95L115.09 215.747L116.764 214.776L116.362 212.881L117.798 214.176L119.477 213.212L118.686 214.979L120.128 216.281ZM112.731 215.397L110.83 215.048L109.907 216.751L109.65 214.834L107.752 214.486L109.494 213.649L109.238 211.73L110.568 213.136L112.317 212.3L111.399 214.003L112.731 215.397ZM105.455 213.968L103.584 213.474L102.54 215.101L102.434 213.172L100.563 212.678L102.365 211.974L102.259 210.039L103.486 211.539L105.292 210.835L104.247 212.462L105.455 213.968ZM98.2849 211.987L96.4612 211.353L95.2923 212.892L95.333 210.957L93.5093 210.324L95.3561 209.761L95.3967 207.827L96.5073 209.412L98.3608 208.854L97.1934 210.4L98.2849 211.987ZM91.3018 209.465L89.5283 208.692L88.2442 210.138L88.43 208.216L86.6577 207.443L88.5466 207.024L88.7323 205.094L89.714 206.769L91.6028 206.35L90.3188 207.797L91.3005 209.465H91.3018ZM84.5316 206.419L82.8177 205.513L81.4279 206.861L81.7601 204.956L80.0516 204.049L81.9635 203.776L82.2943 201.87L83.1486 203.607L85.0659 203.334L83.6774 204.682L84.5316 206.419ZM78.0001 202.864L76.3676 201.835L74.8801 203.073L75.356 201.196L73.7181 200.161L75.6462 200.034L76.1235 198.163L76.8381 199.964L78.773 199.836L77.2855 201.074L78.0001 202.864ZM71.7587 198.824L70.2075 197.669L68.6333 198.791L69.2489 196.955L67.6977 195.798L69.6326 195.816L70.2482 193.985L70.8231 195.832L72.7594 195.856L71.1784 196.978L71.7587 198.824ZM65.855 194.321L64.3974 193.05L62.735 194.043L63.4902 192.259L62.0326 190.993L63.9553 191.161L64.7106 189.383L65.1472 191.271L67.0753 191.446L65.4143 192.439L65.855 194.321ZM60.3119 189.366L58.9587 187.988L57.2272 188.854L58.1221 187.14L56.7675 185.763L58.674 186.083L59.5621 184.362L59.8536 186.279L61.7655 186.599L60.0326 187.466L60.3119 189.366ZM55.1702 184.001L53.9201 182.526L52.1302 183.253L53.154 181.614L51.9038 180.132L53.7804 180.597L54.8041 178.952L54.9424 180.881L56.8204 181.347L55.0238 182.073L55.1702 184.001ZM50.4516 178.267L49.318 176.698L47.4767 177.291L48.6211 175.728L47.4875 174.159L49.3248 174.763L50.4692 173.2L50.4624 175.135L52.3051 175.74L50.4624 176.332L50.4516 178.267ZM46.1804 172.183L45.1756 170.533L43.2922 170.98L44.5533 169.511L43.5485 167.86L45.3316 168.603L46.5872 167.134L46.4299 169.063L48.2197 169.806L46.3377 170.254L46.1804 172.183ZM42.3797 165.791L41.5024 164.072L39.5905 164.38L40.9573 163.008L40.0733 161.288L41.7994 162.16L43.1648 160.788L42.8624 162.7L44.5885 163.577L42.6767 163.885L42.3797 165.791ZM39.0794 159.143L38.3295 157.36L36.4014 157.517L37.8658 156.256L37.116 154.472L38.7716 155.471L40.236 154.205L39.7939 156.087L41.4509 157.093L39.5214 157.256L39.0794 159.143Z" fill="url(#paint2_linear_1803_19)"/>
<path d="M247.638 87.1133H7.20273V152.606H247.638V87.1146V87.1133Z" fill="url(#paint3_linear_1803_19)"/>
<path d="M254.035 120.095C254.035 138.496 247.638 150.159 247.638 150.159H7.20272C7.20272 150.159 0.880005 138.445 0.880005 119.902C0.880005 104.458 7.20272 89.5593 7.20272 89.5593H247.638C247.638 89.5538 254.035 106.34 254.035 120.095Z" fill="url(#paint4_linear_1803_19)"/>
<path d="M134.3 72.983L130.854 76.3363L131.679 81.0779L127.414 78.8352L123.161 81.0779L123.974 76.3363L120.534 72.983L125.294 72.2983L127.414 67.981L129.547 72.2983L134.3 72.983ZM146.293 76.3932L144.643 73.0413L142.993 76.3946L139.291 76.9288L141.965 79.5376L141.33 83.2217L144.643 81.4793L147.955 83.2217L147.315 79.5376L149.995 76.9288L146.293 76.3946V76.3932ZM111.847 76.5925L110.191 73.2339L108.541 76.5925L104.845 77.1213L107.512 79.7288L106.886 83.4183L110.191 81.6746L113.504 83.4183L112.864 79.7288L115.543 77.12L111.847 76.5912V76.5925ZM120.534 165.665L123.985 162.306L123.161 157.57L127.42 159.813L131.679 157.57L130.865 162.306L134.3 165.665L129.547 166.35L127.42 170.667L125.294 166.35L120.534 165.665ZM108.541 162.253L110.191 165.607L111.847 162.253L115.543 161.719L112.876 159.11L113.504 155.426L110.191 157.17L106.886 155.426L107.524 159.11L104.845 161.719L108.541 162.253ZM142.993 162.057L144.643 165.415L146.298 162.057L149.995 161.523L147.322 158.912L147.955 155.228L144.643 156.972L141.33 155.228L141.97 158.912L139.291 161.523L142.993 162.057Z" fill="black"/>
<path d="M91.7303 170.133L74.5248 183.909L69.8414 179.197C71.7994 176.391 74.1357 173.311 76.8489 169.953C75.3981 171.102 72.3282 173.451 67.6557 177.006L62.9967 172.323L76.8489 155.181L80.4991 158.847L75.4781 164.641L70.6211 170.237C73.4686 167.68 77.3669 164.491 82.3174 160.673L86.2157 164.589C85.8157 165.094 84.2401 166.93 81.5038 170.098L76.0069 176.396C79.9047 172.934 83.9348 169.623 88.0883 166.472L91.7303 170.133ZM101.562 174.955L93.7249 195.641L88.952 193.032L90.5927 189.44L88.9249 188.529L86.7567 191.829L81.9282 189.191L94.8232 171.265L101.562 174.955ZM92.3283 185.966C93.518 183.125 94.752 180.302 96.03 177.5C93.5432 180.922 91.7723 183.45 90.7201 185.082L92.3296 185.966H92.3283ZM105.688 176.913L109.314 177.923C111.732 178.597 113.341 179.155 114.143 179.597C114.944 180.038 115.497 180.742 115.81 181.711C116.118 182.682 116.026 184.071 115.52 185.866C115.061 187.511 114.562 188.557 114.021 189.016C113.481 189.475 112.637 189.603 111.481 189.405C112.423 189.957 113.004 190.509 113.225 191.062C113.446 191.614 113.55 192.084 113.527 192.491C113.509 192.892 113.26 193.943 112.783 195.646L111.226 201.212L106.467 199.882L108.425 192.868C108.739 191.741 108.854 191.014 108.762 190.701C108.669 190.386 108.274 190.126 107.565 189.928L104.903 199.445L99.7778 198.011L105.688 176.913ZM109.802 181.955L108.488 186.651C109.065 186.814 109.494 186.842 109.772 186.738C110.052 186.633 110.319 186.117 110.581 185.186L110.906 184.024C111.092 183.356 111.104 182.885 110.941 182.613C110.773 182.339 110.395 182.118 109.802 181.955ZM119.825 180.521L123.591 180.648C126.101 180.735 127.798 180.892 128.675 181.131C129.558 181.368 130.262 181.921 130.796 182.792C131.325 183.664 131.564 185.036 131.5 186.9C131.442 188.603 131.203 189.742 130.791 190.317C130.372 190.892 129.581 191.212 128.419 191.294C129.466 191.607 130.157 192.008 130.506 192.491C130.854 192.972 131.063 193.409 131.139 193.803C131.215 194.199 131.221 195.28 131.162 197.045L130.964 202.822L126.026 202.654L126.275 195.379C126.316 194.205 126.252 193.478 126.09 193.193C125.927 192.908 125.48 192.753 124.747 192.728L124.41 202.601L119.094 202.42L119.827 180.521H119.825ZM125.014 184.449L124.846 189.318C125.444 189.341 125.869 189.265 126.113 189.097C126.357 188.929 126.496 188.365 126.532 187.401L126.572 186.198C126.595 185.5 126.496 185.041 126.27 184.82C126.049 184.594 125.63 184.472 125.014 184.449ZM143.4 178.86L150.658 199.755L145.324 200.812L144.277 197.006L142.412 197.379L142.865 201.307L137.467 202.376L135.858 180.354L143.4 178.86ZM143.376 193.23C142.465 190.289 141.603 187.332 140.791 184.362C141.075 188.582 141.343 191.661 141.581 193.591L143.376 193.23ZM158.647 172.805L167.694 192.759L163.447 194.683L156.811 186.751L160.925 195.822L156.875 197.658L147.828 177.704L151.877 175.868L158.67 183.619L154.597 174.636L158.647 172.805ZM169.496 164.868L172.133 168.372L169.611 170.271L180.152 184.275L175.899 187.477L165.359 173.479L162.842 175.374L160.204 171.87L169.496 164.868ZM178.606 154.513L186.707 166.546L192.733 171.7L189.526 175.448L183.5 170.294L170.442 164.047L173.621 160.335C177.368 162.537 179.839 164.077 181.024 164.967C179.438 163.223 177.572 160.974 175.428 158.225L178.606 154.513ZM75.5418 53.8373L89.6096 70.8041L84.9384 75.6217C82.091 73.722 78.9642 71.4441 75.554 68.7946C76.7269 70.2292 79.1269 73.2515 82.7594 77.8712L78.1167 82.6644L60.7065 69.1431L64.3445 65.3953L70.2306 70.3105L75.9201 75.0576C73.3113 72.2508 70.057 68.4108 66.1574 63.5241L70.0448 59.5146C70.556 59.9091 72.4218 61.4441 75.6408 64.122L82.0381 69.497C78.5048 65.661 75.1241 61.6873 71.9038 57.5851L75.5418 53.8373ZM90.3879 45.0102L103.805 62.6061L99.0185 65.2963L96.8381 62.0014L95.1649 62.9424L96.8151 66.5329L91.9689 69.2583L83.6245 48.8163L90.3879 45.0102ZM94.811 58.6834C93.0265 56.1716 91.2848 53.6298 89.5866 51.059C91.1676 54.9871 92.3703 57.8291 93.1947 59.5891L94.811 58.6834ZM99.291 41.0075L102.952 39.962C105.393 39.2637 107.071 38.8922 107.989 38.8461C108.907 38.8 109.756 39.1078 110.534 39.7695C111.313 40.4325 111.958 41.6637 112.469 43.459C112.934 45.0983 113.056 46.2549 112.835 46.9288C112.614 47.6027 111.953 48.1546 110.853 48.5912C111.951 48.5668 112.742 48.7295 113.225 49.0793C113.707 49.4278 114.044 49.7817 114.236 50.1369C114.427 50.4895 114.77 51.5132 115.253 53.2149L116.839 58.7702L112.039 60.1424L110.041 53.1403C109.721 52.0136 109.436 51.3383 109.192 51.1186C108.948 50.8976 108.472 50.8854 107.756 51.0888L110.471 60.5898L105.299 62.0651L99.291 41.0075ZM105.49 43.1403L106.827 47.8237C107.408 47.6542 107.791 47.4576 107.977 47.219C108.163 46.9803 108.122 46.4 107.855 45.4766L107.524 44.32C107.333 43.6515 107.094 43.2447 106.81 43.0997C106.525 42.9546 106.088 42.9708 105.49 43.1403ZM118.768 36.4678L122.568 36.3295C125.101 36.2359 126.822 36.2766 127.728 36.4515C128.635 36.6251 129.385 37.1308 129.983 37.962C130.582 38.7932 130.913 40.141 130.982 42.0054C131.046 43.7085 130.883 44.8651 130.506 45.463C130.128 46.0624 129.355 46.4447 128.182 46.602C129.256 46.8461 129.983 47.1891 130.365 47.6488C130.75 48.1017 130.994 48.5261 131.093 48.9153C131.197 49.3044 131.279 50.3851 131.348 52.1519L131.557 57.9281L126.567 58.1071L126.298 50.8325C126.258 49.6583 126.141 48.9383 125.955 48.6658C125.77 48.3919 125.311 48.2698 124.567 48.2997L124.928 58.1708L119.558 58.3688L118.768 36.4691V36.4678ZM124.277 40.019L124.457 44.8881C125.061 44.8651 125.48 44.7607 125.718 44.5803C125.955 44.3946 126.054 43.8183 126.019 42.8542L125.973 41.6515C125.95 40.96 125.816 40.5071 125.572 40.2983C125.328 40.0881 124.894 39.9959 124.277 40.019ZM147.618 38.4908L146.398 60.583L141.005 59.5186L141.482 55.5973L139.593 55.2258L138.513 59.0251L133.062 57.9512L139.983 36.9803L147.618 38.4908ZM142.098 51.7627C142.313 49.2746 142.632 46.2129 143.074 42.5749C141.726 46.5844 140.796 49.5308 140.285 51.4075L142.098 51.7627ZM167.897 46.2237L158.774 66.1492L154.492 64.1858L156.097 53.9647L151.947 63.0224L147.862 61.1512L156.985 41.2271L161.07 43.0983L159.705 53.3261L163.813 44.3539L167.897 46.2251V46.2237ZM183.005 56.8651L180.338 60.3458L177.805 58.4041L167.147 72.3159L162.883 69.0495L173.539 55.1376L171.019 53.2041L173.686 49.7234L183.005 56.8651ZM195.557 70.7051L182.331 76.6956L176.259 81.798L173.058 77.9864L179.13 72.8841L187.404 60.9953L190.582 64.7783C187.805 68.1193 185.882 70.3051 184.813 71.3329C186.794 70.0542 189.316 68.5898 192.389 66.9234L195.557 70.7064V70.7051Z" fill="white"/>
<path d="M38.72 99.8401V132.862H46.0638V141.125H26.6387V99.8401H38.72ZM62.2523 99.8401V141.125H50.1722V99.8401H62.2536H62.2523ZM68.2726 99.8401H88.7336V108.103H80.354V115.93H87.8143V123.786H80.3526V141.125H68.2726V99.8401ZM92.8353 99.8401H112.98V108.103H104.915V115.93H112.464V123.786H104.915V132.862H113.783V141.125H92.834V99.8401H92.8353ZM141.993 99.8401V108.103H134.816V141.125H122.736V108.103H115.591V99.8401H141.993ZM158.001 99.8401V141.125H145.921V99.8401H158.001ZM201.298 99.8401V141.125H190.739L190.728 113.25L186.526 141.125H179.036L174.604 113.89L174.591 141.125H164.034V99.8401H179.664C180.129 102.321 180.605 105.25 181.1 108.62L182.814 119.12L185.591 99.8387H201.298V99.8401ZM207.324 99.8401H227.469V108.103H219.404V115.93H226.952V123.786H219.404V132.862H228.271V141.125H207.324V99.8401Z" fill="black"/>
</g>
<defs>
<linearGradient id="paint0_linear_1803_19" x1="168.574" y1="7.38848" x2="87.093" y2="231.256" gradientUnits="userSpaceOnUse">
<stop stop-color="#F5B047"/>
<stop offset="1" stop-color="#FFCF6E"/>
</linearGradient>
<linearGradient id="paint1_linear_1803_19" x1="167.915" y1="229.446" x2="87.7507" y2="9.19998" gradientUnits="userSpaceOnUse">
<stop stop-color="#DE6E00"/>
<stop offset="1" stop-color="#FFEB91"/>
</linearGradient>
<linearGradient id="paint2_linear_1803_19" x1="161.726" y1="212.415" x2="93.9474" y2="26.1979" gradientUnits="userSpaceOnUse">
<stop stop-color="#FFE672"/>
<stop offset="0.616" stop-color="#EDA117"/>
</linearGradient>
<linearGradient id="paint3_linear_1803_19" x1="7.20137" y1="119.856" x2="247.638" y2="119.856" gradientUnits="userSpaceOnUse">
<stop stop-color="#B86300"/>
<stop offset="0.335" stop-color="#DE8A00"/>
<stop offset="0.758" stop-color="#FFFFBA"/>
<stop offset="1" stop-color="#B86300"/>
</linearGradient>
<linearGradient id="paint4_linear_1803_19" x1="0.880005" y1="119.856" x2="254.033" y2="119.856" gradientUnits="userSpaceOnUse">
<stop stop-color="#F5B536"/>
<stop offset="0.44" stop-color="#FFEB87"/>
<stop offset="0.582" stop-color="#FFEB87"/>
<stop offset="1" stop-color="#F5B536"/>
</linearGradient>
<clipPath id="clip0_1803_19">
<rect width="254.916" height="240" fill="white"/>
</clipPath>
</defs>
</svg>
